<svg width="267" height="76" viewBox="0 0 267 76" fill="none" xmlns="http://www.w3.org/2000/svg">
<path d="M27.7457 30.8639C28.7208 29.8888 30.2739 29.8722 31.2112 30.8095L35.0526 34.6509C35.1311 34.1268 35.3654 33.6159 35.7776 33.2037C36.3405 32.6408 37.1091 32.3946 37.8336 32.4691C37.6358 31.6528 37.8606 30.7519 38.5107 30.1018C39.0498 29.5627 39.5676 29.3829 40.0201 29.3914C40.4726 29.3999 40.8594 29.6123 41.1444 29.8498C41.0236 29.0947 41.2705 28.2793 41.873 27.6768L41.9127 27.6372C42.864 26.6858 44.3703 26.67 45.2922 27.5919C45.2922 27.5919 45.4229 27.7225 45.7609 28.0605C45.5919 27.8915 45.3109 27.8959 45.1365 28.0703C44.9621 28.2448 44.9576 28.5257 45.1267 28.6948L45.626 29.1941C46.1549 29.8023 46.1167 30.7471 45.5221 31.3417C44.9275 31.9363 43.9827 31.9745 43.3745 31.4457L42.8751 30.9463C42.7061 30.7773 42.4251 30.7817 42.2507 30.9561C42.0763 31.1305 42.0719 31.4115 42.2409 31.5805L43.3319 32.6715C43.9234 33.263 43.9627 34.2378 43.383 34.879C42.7637 35.5598 41.7252 35.5996 41.0952 34.9696L39.9659 33.8402C39.7968 33.6712 39.5158 33.6756 39.3414 33.85C39.167 34.0244 39.1626 34.3054 39.3316 34.4744L39.9001 35.043C40.461 35.6038 40.509 36.5238 39.9763 37.1487C39.9525 37.1725 39.9208 37.2042 39.897 37.228C39.2787 37.8463 38.2796 37.862 37.6803 37.2628L37.1118 36.6942C36.9428 36.5252 36.6618 36.5296 36.4874 36.7041C36.313 36.8785 36.3086 37.1595 36.4776 37.3285L37.0461 37.897C37.5147 38.3656 38.1432 38.5977 38.7676 38.5879C39.392 38.5781 40.0281 38.3262 40.5117 37.8426C40.9873 37.3669 41.239 36.7465 41.2565 36.1297C42.1406 36.4748 43.1972 36.2787 43.9265 35.5494C44.7114 34.7645 44.8777 33.6148 44.4318 32.6932C45.0409 32.668 45.6533 32.4243 46.129 31.9486C47.0724 31.0052 47.1193 29.514 46.268 28.5676C46.5445 28.8442 46.8979 29.1976 47.3282 29.6278C47.3739 29.1979 47.4423 28.8223 47.5173 28.5168C48.0856 26.12 49.0486 23.9277 49.0486 23.9277C49.5135 22.6485 50.9367 21.9628 52.2017 22.4034C52.5508 22.5305 52.8522 22.7209 53.098 22.9667C53.7434 23.6121 53.9854 24.5993 53.6275 25.5257C53.6275 25.5257 52.5748 29.4518 52.3815 30.8282C52.2231 31.97 52.7975 36.1436 52.7975 36.1436C53.6688 39.7897 52.7582 42.621 50.2212 45.1579C48.4295 46.9496 46.3483 47.8017 44.2425 47.7255C42.1368 47.6493 39.9911 46.6452 38.0704 44.7245L27.6833 34.3374C26.754 33.3922 26.7705 31.8391 27.7457 30.8639ZM47.4389 42.9464C47.6094 43.0218 47.8052 42.9797 47.94 42.8449C47.9796 42.8053 48.0036 42.7659 48.0356 42.7186C48.1406 42.4906 48.0509 42.2423 47.834 42.1365C47.7101 42.076 44.9761 40.769 45.5416 37.0535C45.5845 36.8109 45.4085 36.5874 45.1748 36.5598C44.9335 36.5246 44.7043 36.7077 44.6694 36.9423C43.984 41.3308 47.4003 42.9236 47.4389 42.9464Z" fill="#FFFB14"/>
<path d="M82.996 41.808V35.2H84.984V42.676C83.136 44.328 80.504 45.168 77.788 45.168C71.824 45.168 67.456 40.94 67.456 35.2C67.456 29.46 71.824 25.232 77.816 25.232C80.784 25.232 83.36 26.184 85.096 28.06L83.808 29.376C82.156 27.752 80.196 27.08 77.9 27.08C73.056 27.08 69.5 30.524 69.5 35.2C69.5 39.848 73.056 43.32 77.872 43.32C79.748 43.32 81.484 42.9 82.996 41.808ZM103.28 37.636C103.28 37.804 103.252 38.028 103.252 38.252H90.9323C91.1562 41.332 93.5083 43.376 96.7283 43.376C98.5203 43.376 100.116 42.732 101.236 41.444L102.356 42.732C101.04 44.3 98.9963 45.14 96.6723 45.14C92.0803 45.14 88.9443 42.004 88.9443 37.636C88.9443 33.268 91.9963 30.16 96.1403 30.16C100.284 30.16 103.28 33.212 103.28 37.636ZM96.1403 31.868C93.2843 31.868 91.1843 33.884 90.9323 36.768H101.376C101.124 33.884 99.0243 31.868 96.1403 31.868ZM114.383 42.676L115.083 44.104C114.299 44.804 113.123 45.14 111.975 45.14C109.203 45.14 107.663 43.572 107.663 40.856V31.952H105.031V30.272H107.663V27.052H109.651V30.272H114.131V31.952H109.651V40.744C109.651 42.48 110.547 43.432 112.199 43.432C113.011 43.432 113.823 43.18 114.383 42.676ZM127.038 27.052C126.226 27.052 125.582 26.408 125.582 25.624C125.582 24.868 126.226 24.224 127.038 24.224C127.85 24.224 128.494 24.84 128.494 25.596C128.494 26.408 127.878 27.052 127.038 27.052ZM126.03 45V30.272H128.018V45H126.03ZM141.053 30.16C144.637 30.16 147.101 32.232 147.101 36.46V45H145.113V36.656C145.113 33.548 143.489 31.952 140.689 31.952C137.525 31.952 135.537 33.912 135.537 37.272V45H133.549V30.272H135.453V32.988C136.517 31.196 138.505 30.16 141.053 30.16ZM166.883 42.676L167.583 44.104C166.799 44.804 165.623 45.14 164.475 45.14C161.703 45.14 160.163 43.572 160.163 40.856V31.952H157.531V30.272H160.163V27.052H162.151V30.272H166.631V31.952H162.151V40.744C162.151 42.48 163.047 43.432 164.699 43.432C165.511 43.432 166.323 43.18 166.883 42.676ZM176.702 45.14C172.39 45.14 169.198 42.004 169.198 37.636C169.198 33.268 172.39 30.16 176.702 30.16C181.014 30.16 184.178 33.268 184.178 37.636C184.178 42.004 181.014 45.14 176.702 45.14ZM176.702 43.376C179.838 43.376 182.162 41.08 182.162 37.636C182.162 34.192 179.838 31.896 176.702 31.896C173.566 31.896 171.214 34.192 171.214 37.636C171.214 41.08 173.566 43.376 176.702 43.376ZM199.521 30.272H201.509V45H199.605V42.312C198.569 44.104 196.665 45.14 194.313 45.14C190.561 45.14 188.097 43.04 188.097 38.812V30.272H190.085V38.616C190.085 41.752 191.709 43.348 194.509 43.348C197.589 43.348 199.521 41.36 199.521 38V30.272ZM213.181 45.14C208.785 45.14 205.593 42.032 205.593 37.636C205.593 33.24 208.785 30.16 213.181 30.16C215.673 30.16 217.773 31.14 218.949 33.072L217.465 34.08C216.457 32.596 214.889 31.896 213.181 31.896C209.961 31.896 207.609 34.192 207.609 37.636C207.609 41.108 209.961 43.376 213.181 43.376C214.889 43.376 216.457 42.704 217.465 41.22L218.949 42.228C217.773 44.132 215.673 45.14 213.181 45.14ZM230.139 30.16C233.723 30.16 236.187 32.232 236.187 36.46V45H234.199V36.656C234.199 33.548 232.575 31.952 229.775 31.952C226.611 31.952 224.623 33.912 224.623 37.272V45H222.635V24.224H224.623V32.848C225.715 31.14 227.647 30.16 230.139 30.16Z" fill="#FFFB14"/>
<path fill-rule="evenodd" clip-rule="evenodd" d="M45.2625 10.3526L50.4308 11.9595L46.4551 8.28709L51.2458 5.76881L45.8378 5.98332L47.4447 0.815021L43.7723 4.7908L41.254 0L41.4685 5.40809L36.3002 3.80118L40.162 7.36837C27.5051 10.5091 16.5168 15.5536 9.25645 21.5654C1.51563 27.9752 -2.25048 35.7601 1.40962 43.5321C3.2029 47.3401 6.73243 51.0019 12.176 54.4038C17.6242 57.8086 25.0468 60.9892 34.7223 63.8122C54.0724 69.4579 82.565 73.7104 122.619 75.3959C162.291 77.0653 192.998 74.6128 215.632 69.7794C238.229 64.9538 252.912 57.727 260.377 49.7316C264.125 45.7174 266.095 41.4632 266.256 37.1998C266.418 32.9314 264.762 28.7971 261.532 25.0412C255.109 17.5703 242.358 11.4559 224.421 8.30215C223.877 8.20651 223.359 8.56993 223.263 9.11387C223.168 9.65781 223.531 10.1763 224.075 10.2719C241.83 13.3938 254.035 19.3895 260.016 26.3451C262.988 29.8025 264.396 33.4608 264.258 37.1242C264.119 40.7927 262.423 44.6097 258.915 48.3666C251.869 55.9132 237.674 63.0273 215.214 67.8235C192.791 72.6118 162.262 75.0622 122.703 73.3977C82.7274 71.7155 54.4143 67.4742 35.2825 61.8922C25.717 59.1014 18.4794 55.9846 13.2359 52.7077C7.98759 49.4279 4.7936 46.0236 3.21902 42.68C0.143399 36.1491 3.06422 29.2896 10.532 23.1059C17.0851 17.6796 26.9378 12.9853 38.4651 9.87368L40.8933 9.77737L39.2863 14.9457L42.9588 10.9699L45.477 15.7607L45.2625 10.3526Z" fill="#FFFB14"/>
</svg>
